<svg xmlns="http://www.w3.org/2000/svg" viewBox="0 0 40 32" fill="none">
  <defs>
    <linearGradient id="codeGradient" x1="2" y1="2" x2="38" y2="30" gradientUnits="userSpaceOnUse">
      <stop offset="0.259336" stop-color="#FFDB6E"/>
      <stop offset="1" stop-color="#FFBC5E"/>
    </linearGradient>
  </defs>
  
  <!-- Dark background -->
  <rect x="0" y="0" width="40" height="32" fill="#1e1e1f"/>
  
  <!-- Code editor window outline -->
  <rect x="2" y="2" width="36" height="28" rx="2" stroke="url(#codeGradient)" stroke-width="1.5" fill="none"/>
  
  <!-- Window controls -->
  <circle cx="6" cy="6" r="1.5" fill="url(#codeGradient)"/>
  <circle cx="11" cy="6" r="1.5" fill="url(#codeGradient)"/>
  <circle cx="16" cy="6" r="1.5" fill="url(#codeGradient)"/>
  
  <!-- Code elements -->
  <!-- Brackets -->
  <path d="M 6 12 L 10 12 L 10 24 L 6 24" stroke="url(#codeGradient)" stroke-width="1.5" fill="none"/>
  <path d="M 34 12 L 30 12 L 30 24 L 34 24" stroke="url(#codeGradient)" stroke-width="1.5" fill="none"/>
  
  <!-- Code lines -->
  <rect x="13" y="14" width="14" height="1.5" fill="url(#codeGradient)"/>
  <rect x="13" y="18" width="10" height="1.5" fill="url(#codeGradient)"/>
  <rect x="13" y="22" width="12" height="1.5" fill="url(#codeGradient)"/>
  
  <!-- Indentation markers -->
  <rect x="11" y="14" width="1" height="1.5" fill="url(#codeGradient)"/>
  <rect x="11" y="18" width="1" height="1.5" fill="url(#codeGradient)"/>
  <rect x="11" y="22" width="1" height="1.5" fill="url(#codeGradient)"/>
</svg>